<svg width="83" height="44" viewBox="0 0 83 44" fill="none" xmlns="http://www.w3.org/2000/svg">
<circle cx="22" cy="22" r="22" fill="#9DC3E2"/>
<path d="M8.65763 14.9619L8.61638 14.628C8.58931 14.4288 9.11503 14.0187 10.1935 13.3977C11.2836 12.765 12.365 12.3022 13.4377 12.0093C13.4842 11.9858 13.5827 11.9272 13.7334 11.8335C13.8955 11.7281 14.1396 11.6168 14.4655 11.4996C14.5128 11.523 14.5541 11.5347 14.5892 11.5347C14.7064 11.5347 14.8399 11.4644 14.9897 11.3238C15.1392 11.1715 15.2842 11.0895 15.4246 11.0778C15.5768 11.0661 15.7108 11.0251 15.8267 10.9548C16.1861 10.7439 16.4596 10.6384 16.6471 10.6384L17.0872 10.6735C17.2713 10.4861 17.5215 10.3923 17.8379 10.3923C18.0254 10.3923 18.168 10.4978 18.2656 10.7087H18.3007C18.4062 10.7087 18.5027 10.5388 18.5902 10.199C18.6823 10.1053 18.7869 10.0584 18.9041 10.0584L19.3442 10.0936C19.6111 9.95297 19.9556 9.88267 20.3774 9.88267L21.3474 10.0584C22.0879 10.1756 22.5825 10.3103 22.8314 10.4626L23.0612 10.5329C23.3207 10.6267 23.5419 10.8669 23.7247 11.2535C23.9191 11.6285 24.0176 11.8921 24.0204 12.0444C24.0213 12.0913 23.9882 12.2084 23.9214 12.3959L23.9351 13.1517C23.936 13.1985 23.9024 13.2864 23.8345 13.4153L23.9157 14.0128C23.6754 14.3292 23.5577 14.6221 23.5626 14.8916C23.5679 15.1845 23.4783 15.4071 23.2935 15.5595C23.3948 15.9695 23.4456 16.1863 23.446 16.2097L23.448 16.3152C23.4484 16.3386 23.4265 16.4265 23.3825 16.5788L23.4202 16.7194C24.1552 15.8992 24.6156 15.4423 24.8014 15.3486C24.9989 15.2548 25.131 15.1084 25.1977 14.9092C25.2641 14.6983 25.3961 14.546 25.5936 14.4522C25.7912 14.3585 25.9764 14.2355 26.1494 14.0831C26.3339 13.9191 26.5528 13.7141 26.8061 13.468C27.071 13.2102 27.2376 13.0286 27.306 12.9232C27.3744 12.8177 27.8362 12.4369 28.6914 11.7808H28.8672L29.0647 12.0093C29.1346 11.9858 29.1691 11.9507 29.1682 11.9038C29.1676 11.8687 29.1313 11.8042 29.0592 11.7105C29.0358 11.7105 29.0236 11.6871 29.0228 11.6402C29.0684 11.5699 29.1017 11.4703 29.1228 11.3414C29.1439 11.2125 29.2009 11.1246 29.2938 11.0778C29.3865 11.0192 29.4672 10.9489 29.536 10.8669C29.6048 10.7849 29.7033 10.7204 29.8313 10.6735C30.1809 9.92367 30.8538 9.54874 31.8499 9.54874C32.2014 9.54874 32.5333 9.75378 32.8455 10.1639L32.9874 10.2342C33.1308 10.3865 33.205 10.6032 33.2102 10.8845C33.213 11.0368 33.1286 11.2301 32.9571 11.4644C32.7971 11.6871 32.5536 11.8277 32.2265 11.8862C31.9112 11.9448 31.7133 12.021 31.633 12.1147C31.5527 12.2084 31.4774 12.2553 31.4071 12.2553L31.1948 12.185C31.138 12.2788 31.0168 12.3842 30.8315 12.5014C30.6459 12.6068 30.501 12.6947 30.3968 12.765L30.0785 12.6595C30.0108 12.8001 29.9605 12.9349 29.9277 13.0638C29.8949 13.1927 29.826 13.2688 29.7209 13.2923C29.6276 13.3157 29.5465 13.3684 29.4777 13.4504L29.2674 13.4856H29.1971C29.0716 13.673 28.9741 13.7902 28.9047 13.8371H28.6234C28.6239 13.8605 28.521 14.0011 28.3147 14.2589C28.1083 14.5049 27.9758 14.628 27.9172 14.628L27.7407 14.5928C27.6704 14.5928 27.5541 14.6397 27.3917 14.7334C27.2411 14.8272 27.1674 14.9619 27.1706 15.1376C27.0095 15.3017 26.8413 15.3954 26.666 15.4189C26.5984 15.5712 26.4777 15.7001 26.3039 15.8055C26.1298 15.8992 26.0277 16.0809 25.9974 16.3503C25.6785 16.8542 25.3852 17.1588 25.1176 17.2642C24.7744 17.7212 24.5104 18.0258 24.3257 18.1782C24.1527 18.3305 24.0442 18.4828 24.0001 18.6351L23.9655 18.6703L23.8243 18.6351C23.754 18.6351 23.6454 18.7874 23.4986 19.0921C23.3118 19.1272 23.2151 19.2854 23.2085 19.5666C23.2019 19.8478 23.0936 20.0177 22.8838 20.0763C22.6854 20.1231 22.5882 20.252 22.592 20.4629L22.5946 20.6035L22.6342 20.8496L22.4192 22.5544L22.4224 22.7301L22.4634 23.0465L22.2812 23.6616L22.3212 23.9252C22.2074 24.1127 22.1338 24.2533 22.1004 24.3471C22.0669 24.4408 22.0274 24.5228 21.9818 24.5931L22.0263 25.1028L21.9956 25.3488C22.0934 25.5715 22.143 25.7179 22.1443 25.7882C22.146 25.882 22.1355 25.9523 22.113 25.9991L22.0494 26.3682C22.0272 26.4385 21.97 26.5147 21.8778 26.5967C21.7855 26.6787 21.7398 26.7431 21.7407 26.79C21.8611 26.9658 21.9282 27.1122 21.9421 27.2294C21.9559 27.3466 21.9812 27.4461 22.0178 27.5282C22.0543 27.5985 22.0729 27.657 22.0738 27.7039L22.0489 28.2663L22.2346 28.8112C22.2355 28.858 22.1903 28.9518 22.0991 29.0924L22.1001 29.1451C22.3131 29.2623 22.4628 29.438 22.5491 29.6723C22.7984 29.8481 22.929 29.936 22.9407 29.936C23.011 29.936 23.0921 29.8832 23.1839 29.7778L23.4146 29.9008H23.485C23.5084 29.9008 23.5607 29.8774 23.6419 29.8305C23.7228 29.7719 23.9083 29.6606 24.1983 29.4966C24.5 29.3326 24.7486 29.1509 24.9442 28.9518C25.1513 28.7409 25.516 28.5007 26.0385 28.2312C26.185 27.9148 26.3518 27.7391 26.5386 27.7039L26.6428 27.6336C26.7108 27.5047 26.7968 27.4051 26.901 27.3348C27.0169 27.2645 27.1838 27.1005 27.4018 26.8427C27.6195 26.5732 27.8157 26.4034 27.9902 26.3331C28.0136 26.3331 28.1005 26.2803 28.2509 26.1749C28.4129 26.0577 28.529 25.9991 28.5993 25.9991C28.8571 25.9991 28.9878 26.0987 28.9915 26.2979L28.9614 26.5791L29.0027 26.913C29.0068 27.1357 28.825 27.452 28.4575 27.8621C28.09 28.2722 27.7661 28.5065 27.486 28.5651L27.3466 28.6354C27.0085 29.3736 26.6227 29.7426 26.1891 29.7426C26.0133 29.7426 25.8682 29.8188 25.7538 29.9711L24.9434 30.8323L24.5378 30.762C24.4913 30.7854 24.3473 30.9202 24.1057 31.1662C23.8756 31.4006 23.6681 31.588 23.4832 31.7286L23.4486 31.7638L23.1485 31.6935C22.8837 31.9513 22.5755 32.0801 22.2239 32.0801C22.1536 32.0801 22.0825 32.0333 22.0104 31.9395L21.9746 31.9044L21.431 31.9747C21.4071 31.9513 21.3474 31.8868 21.2517 31.7814C21.156 31.6759 21.0256 31.5939 20.8605 31.5353C20.7071 31.4767 20.5825 31.3947 20.4869 31.2893L20.0794 31.1135C20.0555 31.0901 19.9832 30.9846 19.8626 30.7972L19.6833 30.6038C19.242 30.182 19.0158 29.6665 19.0047 29.0572C19.0026 28.94 19.0327 28.6647 19.0951 28.2312L19.0925 28.0906C19.0917 28.0437 19.0544 27.9265 18.9807 27.7391L18.9794 27.6688C18.9783 27.6102 19.0058 27.5106 19.0618 27.37C19.1178 27.2294 19.1452 27.1239 19.1439 27.0536C19.1426 26.9833 19.1751 26.8369 19.2414 26.6143L19.2407 26.5791L19.0882 25.9288C19.1102 25.8468 19.2669 25.7648 19.5584 25.6828C19.5098 25.589 19.4389 25.2375 19.3458 24.6283C19.2641 24.0073 19.2116 23.6968 19.1881 23.6968C19.1413 23.6968 19.091 23.8315 19.0373 24.101C18.9834 24.3588 18.8874 24.558 18.7494 24.6986C18.6228 24.8274 18.5492 24.968 18.5286 25.1204C18.5079 25.2727 18.3924 25.3664 18.1821 25.4016C18.1374 25.5187 18.0164 25.63 17.8191 25.7355C17.6335 25.8409 17.5294 25.9171 17.5069 25.964C17.257 26.3975 17.0793 26.6143 16.9738 26.6143H16.8683L16.8751 26.9833C16.8295 27.0536 16.7021 27.1357 16.4928 27.2294H16.4401L16.5331 27.5106C16.2459 27.8269 16.0222 28.0906 15.862 28.3015L15.6038 28.6003L15.3603 28.7409C15.3381 28.8112 15.3225 28.9166 15.3133 29.0572C15.3039 29.1861 15.2353 29.2798 15.1075 29.3384C14.9912 29.3853 14.9099 29.4263 14.8637 29.4614C14.7755 29.7661 14.6382 29.9477 14.4517 30.0063C14.351 30.264 14.2548 30.4515 14.1632 30.5687L13.8573 31.1487C13.7768 31.2307 13.6554 31.3185 13.493 31.4123L13.4591 31.4826L13.4643 31.7638C13.4668 31.9044 13.3873 32.0391 13.2255 32.168C13.0636 32.2852 12.9371 32.4141 12.8459 32.5547C12.7453 32.8242 12.5896 32.9589 12.3787 32.9589L11.4873 33.2401C11.2753 33.1815 11.0631 33.1112 10.8506 33.0292C10.6382 32.9472 10.5186 32.8124 10.4917 32.625C10.4648 32.4375 10.4269 32.2852 10.3779 32.168C10.3287 32.0391 10.3026 31.8927 10.2996 31.7286L10.2938 31.4123C10.2897 31.1897 10.4415 30.8382 10.7492 30.3578C11.0685 29.8774 11.3092 29.5786 11.4711 29.4614C11.6447 29.3443 11.7892 29.233 11.9044 29.1275C12.0312 29.0103 12.2103 28.8697 12.4417 28.7057C12.6848 28.5417 12.8516 28.3718 12.9421 28.196L13.5822 27.6336C13.7207 27.5164 13.8478 27.4169 13.9635 27.3348C13.987 27.3348 14.0324 27.2587 14.1 27.1064C14.1792 26.954 14.3815 26.8017 14.7069 26.6494C14.9985 25.9347 15.3298 25.466 15.7007 25.2434C16.0186 24.681 16.3588 24.3822 16.7215 24.3471C16.9522 24.1479 17.0951 23.9487 17.15 23.7495C17.2167 23.5503 17.3306 23.3687 17.4917 23.2047C18.0115 22.7946 18.4258 22.3786 18.7345 21.9568C19.0432 21.535 19.3069 21.2128 19.5255 20.9902C19.7441 20.7676 19.8634 20.5625 19.8834 20.3751C19.9034 20.1876 19.9473 20.0236 20.015 19.883L20.0984 19.6369L20.0959 19.4963L20.1268 19.2678C20.2172 19.0804 20.2621 18.9749 20.2617 18.9515C20.2613 18.928 20.2368 18.8694 20.1882 18.7757C20.1396 18.682 20.1143 18.5824 20.1124 18.4769C20.106 18.1254 20.1614 17.9497 20.2786 17.9497H20.7004C20.7565 17.8091 20.7072 17.6802 20.5528 17.563C20.4098 17.4341 20.3379 17.3463 20.337 17.2994C20.3357 17.2291 20.4235 16.901 20.6003 16.3152C20.5274 16.1746 20.4908 16.0926 20.4903 16.0691C20.4891 15.9988 20.5464 15.9285 20.6623 15.8582C20.7899 15.7879 20.8533 15.7293 20.8524 15.6825L20.7214 15.2431L20.8012 14.8037L20.7584 14.3819L20.8891 13.8371C20.9579 13.7551 20.9911 13.6496 20.9888 13.5207C20.9883 13.4973 20.9696 13.4329 20.9325 13.3274C20.8952 13.2102 20.8732 12.97 20.8666 12.6068C20.8653 12.5365 20.8816 12.4662 20.9155 12.3959C20.9494 12.3256 20.9659 12.267 20.965 12.2202C20.9642 12.1733 20.8799 12.0503 20.7122 11.8511L20.5853 11.6402C20.4638 11.4058 20.198 11.2887 19.7879 11.2887L19.3334 11.4293L18.8927 11.359L18.1394 11.4996C18.0222 11.4996 17.8713 11.5816 17.6868 11.7456C17.5353 11.7925 17.401 11.8159 17.2838 11.8159C17.2608 11.8394 17.1218 11.9272 16.8667 12.0796C16.6232 12.2202 16.4897 12.2905 16.4663 12.2905L16.0601 12.185C15.9212 12.2788 15.7528 12.3666 15.5551 12.4486C15.3691 12.5307 15.1086 12.7006 14.7734 12.9583C14.4498 13.2044 14.2762 13.3274 14.2528 13.3274L13.8108 13.1868H13.7756C13.7053 13.1868 13.6247 13.263 13.5337 13.4153C13.4427 13.5676 13.3217 13.6789 13.1707 13.7492C13.0194 13.8078 12.9379 13.8371 12.9262 13.8371L12.6443 13.8019C12.6505 14.1417 12.4841 14.335 12.1451 14.3819C11.961 14.5694 11.8054 14.71 11.6782 14.8037L11.6095 14.8916C11.4431 15.4071 11.2553 15.7118 11.0461 15.8055C10.8366 15.8875 10.6629 15.9988 10.5248 16.1394C10.4315 16.1629 10.1466 16.2859 9.67023 16.5085C9.62293 16.4851 9.55762 16.4382 9.47431 16.3679C9.4025 16.2859 9.2364 16.1746 8.97603 16.034C8.72737 15.8934 8.59908 15.6063 8.59117 15.1728L8.65763 14.9619ZM28.4095 26.1924L28.5466 25.9991C28.85 25.9288 29.0412 25.8117 29.1202 25.6476C29.1539 25.5656 29.4413 25.261 29.9825 24.7337C30.5236 24.2065 30.8232 23.9252 30.8811 23.8901C31.2437 23.2105 31.4629 22.7008 31.5388 22.3611C31.6781 22.2908 31.7469 22.2087 31.7452 22.115L31.8807 21.8338L32.0383 21.7986L32.1073 21.7283L32.1044 21.5702C32.1006 21.3593 32.3201 20.8672 32.763 20.0939C33.2027 19.1448 33.4393 18.6234 33.4727 18.5297C33.506 18.4242 33.5736 18.2778 33.6757 18.0903C33.7775 17.8911 33.9289 17.5162 34.1297 16.9655C34.3424 16.4148 34.6717 15.8407 35.1178 15.2431C35.1643 15.2197 35.2322 15.0908 35.3217 14.8564C35.411 14.6104 35.5531 14.3702 35.748 14.1359L35.9522 13.7668C36.0204 13.6496 36.1397 13.4446 36.3101 13.1517C36.4806 12.8587 36.6346 12.6303 36.7722 12.4662C36.9214 12.2905 37.0294 12.1089 37.0963 11.9214C37.1749 11.7339 37.2662 11.5992 37.3702 11.5172C37.4741 11.4351 37.5769 11.2887 37.6785 11.0778C37.7917 10.8552 37.9654 10.7439 38.1998 10.7439C38.6568 10.7439 38.9884 10.9313 39.1944 11.3063C39.4122 11.6812 39.5237 12.0093 39.5288 12.2905C39.5294 12.3256 39.4637 12.5775 39.3317 13.0462L39.0969 14.628C38.8646 14.7451 38.7499 14.8799 38.7527 15.0322C38.764 15.6532 38.5355 16.2976 38.0672 16.9655C38.0212 17.0123 37.983 17.1647 37.9525 17.4224C37.9338 17.6802 37.838 17.8911 37.6653 18.0551C37.4925 18.2192 37.3393 18.4945 37.2057 18.8812L35.6136 21.2187L35.4756 21.3593C35.4061 21.4061 35.3259 21.5057 35.2349 21.658L34.9521 21.5702C34.6357 21.5702 34.4793 21.6698 34.4829 21.869C34.4842 21.9393 34.5093 22.033 34.5583 22.1502L34.559 22.1853C34.5592 22.197 34.1368 22.8122 33.2919 24.0307C33.2463 24.101 33.1684 24.3295 33.0583 24.7161L32.8218 25.2434C32.5819 25.5832 32.4123 25.9171 32.3128 26.2452C32.2248 26.5615 32.1006 26.8193 31.9402 27.0185C31.7154 27.5457 31.6032 27.8211 31.6037 27.8445C31.605 27.9148 31.6408 27.95 31.7111 27.95C31.7814 27.95 31.9422 27.7742 32.1936 27.4227C32.4568 27.0712 32.6693 26.8369 32.8312 26.7197C33.0048 26.6025 33.1483 26.4385 33.2617 26.2276L33.4352 26.1046C33.4817 26.0811 33.58 26.0108 33.7302 25.8937L33.9066 25.9288C33.9991 25.8585 34.0562 25.7765 34.0779 25.6828C34.0996 25.589 34.1335 25.5187 34.1795 25.4719C34.4836 25.4367 34.669 25.3254 34.7359 25.1379C34.8145 24.9505 34.9066 24.8567 35.012 24.8567C35.1058 24.8567 35.2269 24.7513 35.3754 24.5404C35.5237 24.3178 35.7314 24.142 35.9986 24.0131C36.2773 23.8725 36.4801 23.7495 36.6071 23.644C36.7458 23.5386 37.0189 23.4156 37.4265 23.275C37.8339 23.1226 38.1079 23.0465 38.2485 23.0465H38.354L38.4953 23.0816L38.7583 23.0465C39.1685 23.0465 39.5808 23.1637 39.9952 23.398C40.4094 23.6206 40.5916 23.9721 40.5418 24.4525L40.421 25.5422L40.2434 26.4034C40.2225 26.544 40.1344 26.8544 39.9791 27.3348C39.8238 27.8152 39.7468 28.0906 39.7481 28.1609L39.6839 28.4948L39.7626 28.9518L39.7341 29.3208C39.7363 29.438 39.7959 29.4966 39.9131 29.4966C39.96 29.4966 40.087 29.3911 40.2941 29.1802C40.4234 29.2037 40.5452 29.1334 40.6594 28.9693C40.7736 28.8053 40.9287 28.6354 41.1247 28.4596C41.1238 28.4128 41.1992 28.3718 41.3509 28.3366C41.5024 28.2898 41.7108 28.1492 41.9761 27.9148C42.021 27.8094 42.2455 27.5867 42.6494 27.247C43.0532 26.8955 43.4408 26.626 43.8124 26.4385L43.9153 26.2979C44.1109 26.0987 44.2907 25.9991 44.4548 25.9991C44.6188 25.9991 44.7025 26.087 44.7057 26.2627C44.7078 26.3799 44.6808 26.5029 44.6245 26.6318C44.5683 26.7607 44.5304 26.9306 44.5108 27.1415C44.491 27.3407 44.3791 27.6336 44.1752 28.0203L44.1081 28.196C44.0297 28.3952 43.9323 28.5124 43.8157 28.5475C43.6992 28.5827 43.5721 28.6823 43.4345 28.8463C43.3083 28.9986 43.0356 29.1451 42.6163 29.2857C42.4352 29.6372 42.2919 29.8129 42.1865 29.8129L41.8675 29.6723C41.625 29.8715 41.5057 30.0766 41.5096 30.2875C41.2096 30.5452 41.0311 30.7151 40.974 30.7972L40.6218 30.762C40.528 30.762 40.4835 30.8909 40.4882 31.1487C40.4886 31.1721 40.3671 31.2541 40.1235 31.3947C39.8915 31.5236 39.712 31.6408 39.585 31.7462C39.4581 31.8517 39.1836 31.9044 38.7618 31.9044C38.7149 31.9044 38.6438 31.8634 38.5486 31.7814C38.4533 31.6993 38.3114 31.629 38.1228 31.5705C37.946 31.5119 37.8205 31.3771 37.7463 31.1662C37.672 30.9436 37.5927 30.7737 37.5085 30.6565C37.4241 30.5277 37.3813 30.4281 37.38 30.3578L37.4088 30.0063L37.3141 29.6372L37.4678 29.3911C37.3945 29.2271 37.3573 29.1158 37.3563 29.0572L37.5125 27.9851C37.6273 27.2118 37.7236 26.708 37.8013 26.4737C37.8243 26.4502 37.8348 26.3799 37.8326 26.2627L37.7894 25.8234L37.8201 25.5773C37.8169 25.4016 37.7566 25.3078 37.6392 25.2961C37.5218 25.2844 37.451 25.2551 37.4267 25.2082C37.273 25.1379 37.1845 25.1028 37.1611 25.1028C37.0673 25.1028 36.9867 25.1789 36.9191 25.3313C36.8514 25.4719 36.76 25.6008 36.6449 25.7179L36.2042 25.6476L36.2048 25.6828C36.2066 25.7765 36.0517 25.9581 35.7402 26.2276C35.4485 26.2979 35.1993 26.4502 34.9927 26.6846C34.8989 26.6846 34.7366 26.7783 34.5056 26.9658C34.2862 27.1415 34.1415 27.2411 34.0716 27.2645L33.9361 27.5457L33.6565 27.6336C33.5787 27.868 33.3881 28.0203 33.0847 28.0906L32.915 28.4245C32.6694 28.4479 32.5018 28.5768 32.4123 28.8112C32.3226 29.0338 32.2544 29.1451 32.2075 29.1451C32.1841 29.1451 32.1428 29.1334 32.0838 29.1099C32.0363 29.0748 31.9891 29.0572 31.9422 29.0572C31.6844 29.0572 31.5473 29.2505 31.5309 29.6372C31.5318 29.6841 31.2966 29.9594 30.8253 30.4632C30.354 30.967 30.1009 31.2248 30.066 31.2365C30.031 31.2482 29.963 31.3713 29.8618 31.6056C29.7721 31.8282 29.6404 31.9981 29.4668 32.1153C29.2929 32.2207 29.1598 32.3086 29.0673 32.3789C28.9865 32.4492 28.9227 32.4844 28.8759 32.4844C28.6298 32.4844 28.4273 32.3086 28.2686 31.9571C28.1098 31.6056 28.0303 31.424 28.0301 31.4123L28.1288 31.0432L28.0879 30.7268C28.0877 30.7151 28.1537 30.4808 28.286 30.0238C28.4298 29.5552 28.5931 29.1919 28.7759 28.9342C28.9585 28.6647 29.0971 28.2312 29.1916 27.6336C28.6707 27.9851 28.3575 28.1609 28.252 28.1609C28.0177 28.1609 27.8977 28.0086 27.8921 27.7039C27.8819 27.1415 28.0543 26.6377 28.4095 26.1924ZM57.1485 28.0554L57.4253 27.8094C57.6011 27.8094 57.7052 27.7332 57.7375 27.5809C57.7697 27.4169 57.8904 27.288 58.0996 27.1942C58.3206 27.1005 58.5222 26.913 58.7046 26.6318C58.8867 26.3389 59.0774 26.1924 59.2767 26.1924C59.347 26.1924 59.4301 26.251 59.526 26.3682C59.6218 26.4854 59.6704 26.5791 59.6717 26.6494C59.6788 27.0361 59.5688 27.4344 59.342 27.8445L59.2806 28.3366L59.1617 28.5651C58.9877 28.6588 58.8723 28.7584 58.8156 28.8639C58.7707 28.9693 58.6383 29.0982 58.4184 29.2505L58.2471 29.4966C57.9908 29.5786 57.8175 29.7133 57.7271 29.9008C57.6485 30.0883 57.5274 30.1937 57.3638 30.2172C57.2119 30.2406 57.0441 30.3578 56.8604 30.5687C56.7443 30.6273 56.6046 30.68 56.4414 30.7268L56.4095 30.9026C56.2944 31.0198 56.1086 31.1135 55.8521 31.1838C55.6073 31.2541 55.4211 31.3244 55.2935 31.3947C55.1773 31.4533 55.0959 31.4826 55.049 31.4826C54.8263 31.4826 54.6205 31.4416 54.4315 31.3596C54.2423 31.2658 54.0479 31.2072 53.8482 31.1838C53.7766 31.1135 53.7342 31.0373 53.721 30.9553C53.7078 30.8733 53.6473 30.7679 53.5394 30.639C53.4314 30.4984 53.3752 30.3109 53.371 30.0766L53.4352 29.7426C53.4343 29.6958 53.404 29.6372 53.3441 29.5669C53.2842 29.4966 53.2539 29.438 53.253 29.3911C53.2521 29.3443 53.2632 29.3091 53.2862 29.2857C53.3092 29.2623 53.3203 29.2271 53.3195 29.1802C53.3184 29.1216 53.3055 29.0572 53.2808 28.9869C53.2561 28.9166 53.2433 28.858 53.2424 28.8112L53.3322 27.95C53.3309 27.8797 53.3068 27.8445 53.2599 27.8445C53.2131 27.8445 53.1262 27.9031 52.9995 28.0203C52.8844 28.1374 52.7449 28.196 52.5808 28.196C52.4883 28.2663 52.4148 28.4128 52.3603 28.6354C52.2687 28.7526 52.1534 28.858 52.0145 28.9518L51.9461 29.0572C51.9242 29.1392 51.8376 29.2095 51.6863 29.2681C51.5348 29.315 51.4305 29.3794 51.3734 29.4614L51.2008 29.6372L50.8662 29.602C50.8432 29.6255 50.7807 29.7309 50.6786 29.9184C50.5764 30.0941 50.4443 30.2406 50.2824 30.3578L48.9663 31.4474C48.8274 31.5412 48.6244 31.6583 48.3575 31.7989L48.2539 31.9044C47.3278 32.5254 46.6713 32.8359 46.2846 32.8359C45.9682 32.8359 45.5975 32.748 45.1724 32.5722C44.7473 32.3965 44.5149 32.1856 44.4753 31.9395L44.2864 31.219C44.1779 31.0549 44.121 30.8264 44.1156 30.5335C44.1131 30.3929 44.1231 30.2992 44.1457 30.2523L44.1437 30.1469L44.098 29.5669C44.0954 29.4263 44.2055 29.356 44.4281 29.356L44.3843 28.8815C44.3835 28.8346 44.4798 28.653 44.6732 28.3366C44.8782 28.0086 45.0154 27.8211 45.0848 27.7742L45.2564 27.5457C45.2421 27.4051 45.3215 27.2587 45.4945 27.1064C45.6673 26.9423 45.8049 26.7783 45.9074 26.6143C46.0099 26.4502 46.2058 26.2686 46.4951 26.0694L47.0128 25.5422C47.4155 25.1321 47.8548 24.804 48.3308 24.558C48.4007 24.5345 48.5392 24.4174 48.7463 24.2065C48.9651 23.9955 49.2084 23.8432 49.4762 23.7495C49.7555 23.644 50.0227 23.5152 50.2777 23.3628C50.5445 23.2105 50.754 23.1344 50.9064 23.1344H51.047C51.0939 23.1344 51.4018 22.9879 51.9706 22.695H52.0761C52.123 22.695 52.2352 22.7419 52.4127 22.8356H52.4478L52.7265 22.695C52.7729 22.6716 52.8313 22.6598 52.9016 22.6598C53.6282 22.6598 54.0358 23.1637 54.1245 24.1713C54.1518 24.3822 54.2123 24.4877 54.3061 24.4877C54.4233 24.4877 54.5835 24.2768 54.7867 23.8549C55.0015 23.4214 55.4604 23.2047 56.1635 23.2047C56.6674 23.2047 56.9253 23.5269 56.937 24.1713C56.9509 24.9329 56.6242 25.6535 55.957 26.3331C55.9118 26.4268 55.8786 26.5322 55.8573 26.6494L55.6243 27.37L55.625 27.4051C55.6262 27.4754 55.5753 27.575 55.4722 27.7039C55.3806 27.8211 55.3356 27.9265 55.3374 28.0203L55.3805 28.4596L55.3192 28.9518C55.3233 29.1744 55.3669 29.3208 55.4503 29.3911C55.8236 29.2974 56.0903 29.1451 56.2505 28.9342C56.4222 28.7116 56.543 28.5885 56.6129 28.5651L56.7874 28.4948C56.8897 28.319 57.0101 28.1726 57.1485 28.0554ZM51.3126 28.0554C51.3548 27.7977 51.4919 27.6043 51.7239 27.4754C51.9674 27.3348 52.1113 27.1942 52.1556 27.0536C52.3753 26.8896 52.6864 26.5967 53.0888 26.1749C53.503 25.7531 53.7092 25.4953 53.7075 25.4016C53.7069 25.3664 53.6831 25.3488 53.6363 25.3488H53.6011L53.4621 25.4367L53.145 25.4016L52.8117 25.4367L52.5633 25.3137L52.3355 25.3488L51.9826 25.2785C51.7951 25.2785 51.6318 25.3195 51.4927 25.4016C51.3651 25.4719 51.1087 25.5539 50.7237 25.6476C50.3504 25.7414 50.0136 25.9054 49.7132 26.1397C49.4126 26.3623 49.1919 26.4737 49.0513 26.4737C48.9725 26.6494 48.7017 26.9013 48.2389 27.2294C47.9594 27.3231 47.7815 27.5282 47.7052 27.8445C47.405 28.0906 47.2553 28.2312 47.2559 28.2663L47.1383 28.5651C47.0461 28.6471 46.9302 28.7174 46.7906 28.776C46.6508 28.8229 46.571 28.9459 46.5512 29.1451C46.5312 29.3326 46.4524 29.5083 46.3148 29.6723C46.1886 29.8247 46.1264 29.9477 46.1281 30.0414C46.1386 30.6155 46.2552 30.9026 46.4778 30.9026C46.5716 30.9026 46.7639 30.844 47.0547 30.7268C47.3571 30.598 47.5312 30.5101 47.5772 30.4632C47.6233 30.4164 47.7162 30.3695 47.8559 30.3226L48.1867 30.1469C48.2327 30.1 48.2849 30.0707 48.3433 30.059C48.4017 30.0473 48.4596 30.0121 48.5172 29.9535C48.5745 29.8832 48.6787 29.8129 48.8297 29.7426C48.9806 29.6606 49.0958 29.5552 49.1755 29.4263C49.3726 29.3091 49.6915 29.1275 50.1324 28.8815L50.4964 28.6003C50.752 28.4831 50.9084 28.3835 50.9655 28.3015C51.0226 28.2195 51.1383 28.1374 51.3126 28.0554ZM60.9522 28.4245L60.9499 28.3015C60.9469 28.1374 60.9563 28.0086 60.978 27.9148C60.9043 27.7273 60.866 27.5575 60.8632 27.4051C60.8628 27.3817 60.9184 27.2177 61.03 26.913L61.1783 26.3682C61.2565 26.1573 61.3013 26.046 61.3128 26.0343C61.2391 25.8468 61.202 25.7414 61.2016 25.7179C61.1967 25.4484 61.2688 25.2258 61.4179 25.0501C61.567 24.8743 61.6915 24.6283 61.7912 24.3119L62.1232 23.2398L62.6776 21.8338C62.6887 21.7986 62.7397 21.7049 62.8306 21.5526C62.9333 21.4003 63.013 21.2714 63.0697 21.1659C63.1379 21.0488 63.2286 20.8847 63.342 20.6738L63.5171 20.6387C63.5631 20.5918 63.5857 20.545 63.5848 20.4981C63.5844 20.4747 63.5593 20.3809 63.5094 20.2169L64.106 19.1975L64.4614 18.4418C64.5749 18.2426 64.7015 18.1137 64.841 18.0551C65.0675 17.6216 65.2678 17.358 65.4418 17.2642C65.5081 17.0416 65.6326 16.8014 65.8154 16.5437L66.1487 16.5085C66.2043 16.3445 66.2607 16.2215 66.3178 16.1394L66.3465 15.7879C66.3478 15.8582 66.3768 15.8407 66.4335 15.7352C66.4899 15.618 66.574 15.4071 66.6856 15.1025L67.1503 14.5577L67.2864 14.3116C67.3435 14.2296 67.4343 14.0714 67.559 13.8371C67.7335 13.7668 67.8776 13.6379 67.9914 13.4504L68.3551 13.1517C68.3293 13.0228 68.4647 12.7357 68.7612 12.2905C68.9589 12.2084 69.1387 12.103 69.3004 11.9741L69.5452 11.9038C69.5377 11.4937 69.6791 11.2125 69.9692 11.0602L70.1776 10.9196C70.3634 10.8259 70.468 10.779 70.4915 10.779L70.6139 10.7439C70.7536 10.697 70.9173 10.6735 71.1048 10.6735C71.5384 10.6735 71.9339 10.8376 72.2915 11.1657C72.6488 11.482 72.8312 11.8452 72.8387 12.2553C72.8417 12.4194 72.7569 12.5892 72.5843 12.765L72.5166 12.9056C72.3643 13.55 72.253 13.8722 72.1827 13.8722C72.1358 13.8722 72.072 13.9074 71.9912 13.9777C71.9749 14.3643 71.9554 14.5811 71.9328 14.628C71.7225 14.6631 71.6218 14.9267 71.6308 15.4189C71.6087 15.4892 71.523 15.6122 71.3739 15.7879C71.2362 15.952 71.1292 16.1863 71.0527 16.4909C70.976 16.7839 70.8908 16.9303 70.7971 16.9303H70.6037L70.6613 17.1939C70.6643 17.358 70.5852 17.522 70.4241 17.6861C70.2746 17.8384 70.1838 18.0024 70.1519 18.1782C70.1199 18.3539 69.9832 18.5648 69.7415 18.8109L69.5709 19.0921C69.5027 19.2092 69.4112 19.3323 69.2964 19.4611C69.1815 19.59 69.0856 19.7892 69.0085 20.0587L68.5668 20.9023C68.2609 21.4764 68.0257 21.7518 67.8612 21.7283C67.7641 22.1853 67.6986 22.4489 67.6647 22.5192C67.6308 22.5895 67.55 22.654 67.4221 22.7126C67.2943 22.7711 67.1966 22.8766 67.1291 23.0289C67.0613 23.1695 66.9871 23.275 66.9063 23.3453L66.6018 23.9955C66.4158 24.0776 66.2838 24.2299 66.2058 24.4525C66.0192 24.4994 65.9049 24.6575 65.8629 24.927C65.8169 24.9739 65.7602 25.0794 65.6929 25.2434L65.0889 25.8585C64.7766 26.0811 64.6114 26.3389 64.5933 26.6318C64.575 26.913 64.4252 27.0536 64.1439 27.0536C63.9447 27.0536 63.6501 26.9658 63.2602 26.79H63.2251C63.1929 26.954 63.1142 27.1357 62.9889 27.3348L63.0679 27.8094C63.0689 27.868 62.9819 28.237 62.8068 28.9166C62.9038 29.0924 62.9529 29.2154 62.9542 29.2857L62.9261 29.6723L63.0226 30.1469C63.0883 30.5335 63.2325 30.7268 63.4551 30.7268L63.8783 30.7972C63.9017 30.7972 64.0466 30.7093 64.3129 30.5335L64.9569 30.182C64.9803 30.182 64.9923 30.1937 64.9927 30.2172C65.1107 30.264 65.2049 30.2875 65.2752 30.2875C65.3924 30.2875 65.4493 30.1937 65.4459 30.0063L65.4417 29.7778C65.5099 29.6606 65.5906 29.5903 65.6839 29.5669C65.789 29.5435 65.8818 29.4907 65.9623 29.4087C66.0428 29.3267 66.1065 29.2857 66.1534 29.2857H66.3292C66.505 29.2857 66.5891 29.0806 66.5816 28.6706C66.6281 28.6471 66.6858 28.6003 66.7549 28.53H66.9658C67.0595 28.53 67.1571 28.4186 67.2585 28.196C67.3714 27.9617 67.4509 27.8211 67.4969 27.7742C67.7074 27.7508 67.8533 27.7156 67.9345 27.6688C68.2971 26.9892 68.578 26.6494 68.7772 26.6494H68.8826C69.0784 26.4619 69.1809 26.2979 69.1901 26.1573C69.2107 26.005 69.2675 25.9054 69.3604 25.8585C69.465 25.8117 69.5577 25.7531 69.6384 25.6828C69.7192 25.6125 69.7713 25.5773 69.7947 25.5773C69.9705 25.5773 70.0596 25.6418 70.0619 25.7706L70.0182 26.2627L70.1508 26.79C70.1517 26.8369 70.1007 26.9306 69.9978 27.0712C69.9064 27.2001 69.8622 27.3466 69.8652 27.5106C69.8714 27.8504 69.8161 28.032 69.6993 28.0554C69.5826 28.0789 69.4844 28.1609 69.405 28.3015C69.337 28.4304 69.2162 28.5534 69.0426 28.6706C68.8687 28.776 68.7368 28.9342 68.6469 29.1451L68.3494 29.2154L68.1755 29.3208C68.0415 29.6841 67.8933 29.9067 67.7307 29.9887C67.5799 30.0707 67.391 30.3168 67.1641 30.7268C67.1289 30.7268 67.1116 30.7386 67.112 30.762L66.8301 30.7268C66.7281 30.9143 66.6246 31.0256 66.5198 31.0608C66.415 31.0959 66.3284 31.1662 66.26 31.2717C66.1914 31.3654 66.064 31.4474 65.8777 31.5177C65.7032 31.588 65.5934 31.6701 65.5482 31.7638C65.5031 31.8575 65.4337 31.9102 65.3402 31.922C65.2467 31.9337 65.1596 31.9805 65.0791 32.0626C64.9983 32.1329 64.9287 32.168 64.8701 32.168C64.8466 32.168 64.7644 32.1563 64.6233 32.1329H64.553C64.3564 32.2735 64.1936 32.3438 64.0647 32.3438C63.9123 32.3438 63.8014 32.3672 63.732 32.4141C63.6608 32.3672 63.5489 32.3321 63.3961 32.3086C63.255 32.2852 63.0899 32.2266 62.9007 32.1329C62.7023 32.1797 62.5797 32.2032 62.5328 32.2032C62.3336 32.2032 62.0781 32.0098 61.7664 31.6232C61.4544 31.2248 61.295 30.8382 61.2882 30.4632C61.288 30.4515 61.2161 30.3636 61.0724 30.1996C60.9403 30.0238 60.8724 29.8364 60.8688 29.6372L60.8656 29.4614L60.8969 29.2505L60.8908 28.9166L60.9241 28.8112C61.0994 28.7877 61.1869 28.7643 61.1864 28.7409L60.9522 28.4245ZM64.4355 23.7671L64.8008 23.5562C64.8443 23.3687 64.9925 23.1461 65.2456 22.8883C65.4985 22.6188 65.6777 22.4841 65.7832 22.4841H65.9238C65.9223 22.4021 65.9384 22.32 65.9721 22.238C66.0057 22.156 66.0213 22.0447 66.0187 21.9041C66.0174 21.8338 66.1721 21.6405 66.4827 21.3241L66.6176 21.0078C66.7175 20.7031 66.9766 20.4512 67.3948 20.252C67.5527 19.9122 67.6726 19.7424 67.7546 19.7424L67.8946 19.7072C67.9383 19.5314 68.0292 19.3733 68.1672 19.2327L68.2356 19.1272L68.2305 18.846C68.23 18.8226 68.3045 18.7288 68.4539 18.5648C68.6147 18.3891 68.729 18.2309 68.7968 18.0903C68.8643 17.938 68.9559 17.8208 69.0716 17.7388C69.199 17.6568 69.2842 17.5103 69.3272 17.2994L69.6079 17.2642C69.6051 17.1119 69.615 17.0123 69.6376 16.9655L69.6695 16.7897C69.7255 16.6491 69.9239 16.28 70.2645 15.6825L70.5339 15.0322C70.5326 14.9619 70.578 14.8799 70.67 14.7861C70.7736 14.6807 70.8237 14.5342 70.8202 14.3468L70.9503 13.7668C70.9454 13.4973 70.896 13.3626 70.8023 13.3626C70.6866 13.4446 70.5763 13.5032 70.4715 13.5383C70.3784 13.5735 70.2885 13.7844 70.2018 14.171C69.8517 14.253 69.6497 14.4229 69.5959 14.6807C69.5535 14.9267 69.4167 15.1376 69.1855 15.3134L69.0663 15.5243C69.0452 15.6532 68.9364 15.7879 68.7397 15.9285C68.5431 16.0691 68.36 16.3093 68.1904 16.6491C67.6192 17.4576 67.3048 17.8911 67.2473 17.9497L67.0754 18.1606L66.8111 18.1254C66.8614 18.3129 66.8867 18.4184 66.8872 18.4418C66.8884 18.5121 66.8546 18.5824 66.7855 18.6527C66.7163 18.7113 66.6649 18.7874 66.6315 18.8812C66.5981 18.9749 66.5298 19.0862 66.4267 19.2151C66.3233 19.3323 66.2274 19.5314 66.1387 19.8127C66.0616 20.0821 65.9883 20.2403 65.9189 20.2872L65.6721 20.252C65.5215 20.3458 65.4471 20.4395 65.4488 20.5332L65.506 20.7793C65.5068 20.8262 65.4728 20.8847 65.4037 20.955C65.3462 21.0136 65.2899 21.1367 65.2347 21.3241C65.1795 21.5116 65.0383 21.7986 64.8109 22.1853C64.5834 22.5602 64.4033 22.9645 64.2706 23.398C64.1494 23.8198 64.0254 24.0893 63.8986 24.2065C63.9225 24.2299 63.9578 24.2416 64.0047 24.2416C64.1571 24.2416 64.3007 24.0834 64.4355 23.7671ZM71.1457 25.4367L71.5094 25.1379C71.7902 25.1145 71.9399 24.968 71.9584 24.6986C71.9769 24.4291 72.166 24.1947 72.5256 23.9955L72.7311 23.6968C72.9037 23.521 73.38 23.2925 74.16 23.0113C74.3571 22.8942 74.4899 22.7887 74.5585 22.695C74.5815 22.6716 74.6048 22.6598 74.6282 22.6598L74.9107 22.7301C75.0631 22.7301 75.2557 22.6891 75.4886 22.6071C75.7332 22.5251 75.9668 22.4841 76.1894 22.4841L76.9271 22.4489C76.974 22.4489 77.0683 22.4841 77.2103 22.5544C77.3639 22.6247 77.5462 22.6598 77.7571 22.6598C78.0149 22.6598 78.2514 22.777 78.4666 23.0113C78.6936 23.2457 78.8089 23.4624 78.8125 23.6616C78.8191 24.0248 78.6384 24.3939 78.2702 24.7689C77.902 25.1438 77.6071 25.3547 77.3853 25.4016C77.1897 25.6008 77.0397 25.7296 76.9353 25.7882C76.8307 25.8351 76.7208 25.9171 76.6058 26.0343C76.5023 26.1397 76.4153 26.1924 76.345 26.1924C76.2981 26.1924 76.2628 26.1807 76.2389 26.1573C76.2148 26.1221 76.1793 26.1046 76.1325 26.1046C75.945 26.1046 75.7441 26.3331 75.5297 26.79L75.2127 26.7549C75.0158 26.8837 74.8895 27.0243 74.8337 27.1767C74.7779 27.329 74.6562 27.4051 74.4687 27.4051C74.043 27.8387 73.754 28.0554 73.6017 28.0554C73.5782 28.0554 73.4958 28.032 73.3543 27.9851C73.2627 28.1023 73.218 28.2253 73.2204 28.3542C73.223 28.4948 73.1307 28.5768 72.9436 28.6003L72.719 28.8112L72.5426 28.776L72.1977 29.1451C72.0219 29.1451 71.8414 29.2037 71.656 29.3208C71.6351 29.4614 71.6033 29.643 71.5605 29.8657C71.5175 30.0766 71.4962 30.1937 71.4966 30.2172C71.5028 30.557 71.8164 30.7268 72.4375 30.7268L73.279 30.6038C73.5017 30.6038 73.7057 30.5452 73.8911 30.4281C74.0881 30.3109 74.298 30.2523 74.5207 30.2523C74.591 30.2523 74.696 30.2289 74.8358 30.182L75.0129 30.2523C75.0917 30.0766 75.2411 29.9184 75.4612 29.7778C75.6813 29.6372 75.8558 29.5669 75.9847 29.5669L76.1586 29.4614C76.2029 29.3208 76.2715 29.2271 76.3644 29.1802L76.5028 29.0572C76.5948 28.9635 76.6818 28.9166 76.7639 28.9166H77.01L77.0796 28.8815C77.2147 28.5768 77.4048 28.4011 77.6501 28.3542C77.9068 28.2956 78.0634 28.2077 78.1199 28.0906C78.1881 27.9734 78.304 27.9031 78.4676 27.8797C78.6312 27.8562 78.7646 27.7801 78.8677 27.6512C78.9823 27.5106 79.1206 27.3817 79.2825 27.2645C79.4445 27.1474 79.5542 27.0595 79.6117 27.0009C79.681 26.9423 79.739 26.913 79.7859 26.913C79.8562 26.913 79.8923 26.9658 79.8943 27.0712C79.8962 27.1767 79.9206 27.2294 79.9674 27.2294C80.0143 27.2294 80.0373 27.206 80.0365 27.1591C80.0356 27.1122 80.0228 27.0536 79.9981 26.9833L79.9959 26.8603C79.9927 26.6846 80.0843 26.5674 80.2707 26.5088L81.0524 25.9991C81.0714 25.7531 81.1333 25.6125 81.2381 25.5773C81.3544 25.5304 81.4414 25.4836 81.4992 25.4367C81.5567 25.3781 81.6206 25.3488 81.6909 25.3488C81.8433 25.3488 81.9211 25.4367 81.9243 25.6125L81.8447 26.0694L81.9413 26.544C81.9426 26.6143 81.8858 26.7138 81.7709 26.8427C81.6676 26.9599 81.589 27.1474 81.5351 27.4051C81.481 27.6512 81.4073 27.7859 81.314 27.8094H81.2085C81.0016 28.032 80.8342 28.1667 80.7061 28.2136C80.5896 28.2487 80.4971 28.319 80.4287 28.4245L79.8436 29.1099C79.7285 29.2271 79.6308 29.3326 79.5505 29.4263C79.4702 29.52 79.4066 29.5669 79.3597 29.5669L79.2165 29.4263C79.2161 29.4029 79.1924 29.3911 79.1456 29.3911C79.0284 29.3911 78.9535 29.4614 78.9209 29.602C78.9 29.7426 78.8437 29.8657 78.7519 29.9711C78.4033 30.1352 78.1776 30.2875 78.0747 30.4281L77.9698 30.4632H77.6534C77.5011 30.4632 77.3977 30.5804 77.3434 30.8147C77.2889 31.0373 77.1213 31.1662 76.8407 31.2014C76.5718 31.2365 76.3798 31.3068 76.2645 31.4123C76.2415 31.4357 76.1892 31.4591 76.1076 31.4826C76.026 31.506 75.8636 31.5998 75.6205 31.7638L74.1536 32.291C74.0375 32.3496 73.9618 32.3789 73.9267 32.3789L73.4358 32.4492C73.3654 32.4492 73.2943 32.4024 73.2223 32.3086C73.1502 32.2149 73.1025 32.168 73.0791 32.168L72.7646 32.2735C72.5315 32.3438 72.3095 32.3789 72.0985 32.3789C71.9814 32.3789 71.8517 32.3379 71.7096 32.2559C71.5675 32.1739 71.4551 32.1153 71.3724 32.0801C71.0325 32.0801 70.7875 31.8165 70.6372 31.2893L70.4269 31.3244C70.3801 31.3244 70.2143 30.9085 69.9296 30.0766C69.8575 29.9828 69.745 29.9184 69.5921 29.8832C69.4389 29.8364 69.3605 29.7192 69.3571 29.5317C69.3475 29.0045 69.4524 28.653 69.6719 28.4772C69.9028 28.2898 70.0292 28.1492 70.0509 28.0554L70.2803 27.1415C70.3265 27.1064 70.383 26.9892 70.4497 26.79L70.8405 26.0518C70.8859 25.9698 70.9876 25.7648 71.1457 25.4367ZM74.8354 24.3822L74.6264 24.4877C74.58 24.5111 74.4413 24.6165 74.2103 24.804C73.9908 24.9798 73.7709 25.1262 73.5503 25.2434C73.3413 25.3488 73.1239 25.6359 72.8981 26.1046C72.684 26.5732 72.5776 26.8427 72.5789 26.913C72.5801 26.9833 72.6159 27.0185 72.6863 27.0185L73.2791 26.7549C73.4998 26.6494 73.7025 26.5147 73.887 26.3506C74.0832 26.1866 74.3608 25.9874 74.7198 25.7531L74.8579 25.6125C74.8804 25.5656 74.9844 25.4836 75.1698 25.3664C75.3666 25.2375 75.5109 25.1145 75.6025 24.9973L75.777 24.927C75.9704 24.6107 76.1661 24.4174 76.3641 24.3471C76.5737 24.2768 76.6779 24.2065 76.6766 24.1362C76.6741 23.9955 76.5614 23.9252 76.3388 23.9252C76.245 23.9252 76.1055 23.9838 75.9201 24.101H75.5158C75.469 24.101 75.3413 24.1713 75.133 24.3119L74.8354 24.3822Z" fill="#263238"/>
</svg>
